# xmcd
#
# Track frame offsets:
#	150
#	24058
#	43576
#	94540
#	116294
#	152725
#	182659
#
# Disc length: 2678 seconds
#
# Revision: 0
# Processed by: cddbd v1.5.2PL0 Copyright (c) Steve Scherf et al.
# Submitted via: dBpowerAMP V4.0
#
DISCID=420a7407
DTITLE=Swingshift - Really Hot Rock
DYEAR=2008
DGENRE=Country
TTITLE0=Brother John
TTITLE1=Maybelline
TTITLE2=Chain Chain Chain-/ Don't You Just Know It
TTITLE3=Iko Iko
TTITLE4=Mustang Sally
TTITLE5=For What Its Worth
TTITLE6=Wild Nights
EXTD=
EXTT0=
EXTT1=
EXTT2=
EXTT3=
EXTT4=
EXTT5=
EXTT6=
PLAYORDER=
